<svg id="e5b736cf-9bf4-449d-851b-8134a667b955" data-name="Layer 1" xmlns="http://www.w3.org/2000/svg" xmlns:xlink="http://www.w3.org/1999/xlink" viewBox="0 0 787.02 1073.4"><defs><style>.b3ad0690-ac26-49b2-a45e-360aadd61dc6{opacity:1;fill:url(#ea59ed37-86c4-4a94-a457-993641e97e65);}.ab27dfd2-a2af-4f17-ac40-bc139bdc9ea5,.b3ad0690-ac26-49b2-a45e-360aadd61dc6,.bc39809f-9162-4618-b2e6-215753530438,.e4c21477-1d98-4bc6-b819-2bf58752b94e,.e7a1c4f5-3d71-410a-aa98-3c5c2be79db8,.ec8a7afa-8964-466b-ace5-bb0c8f9b0125,.f14cd5c8-1174-40be-ae95-77a917098d72,.fd73a59d-1982-49c9-b047-2324acb76494{isolation:isolate;}.b409c0a8-5698-440a-a56e-1734fa3b97cb,.e4c21477-1d98-4bc6-b819-2bf58752b94e,.e7a1c4f5-3d71-410a-aa98-3c5c2be79db8{fill:#fff;}.b8191384-c96b-4355-80aa-0f6be9ab5b38{fill:url(#bc2f5da9-8a7b-4036-a7ac-76084e376464);}.a9fd070e-f09a-4114-9a48-5dc8d2e051b1,.b9de8640-5ab8-489c-85cb-44749037969a{fill:#38f491;}.bcf30b2d-e46a-4c1c-b4a8-89163b24c589,.ec8a7afa-8964-466b-ace5-bb0c8f9b0125{fill:#6c7580;}.e7a1c4f5-3d71-410a-aa98-3c5c2be79db8{opacity:0.05;}.e2ddea42-97ee-4592-ae99-fdd53fa8b7ba,.f55b0d62-f99e-424e-925d-82417fcaba3e{fill:#dee3ed;}.f55b0d62-f99e-424e-925d-82417fcaba3e{stroke:#dee3ed;}.b9de8640-5ab8-489c-85cb-44749037969a,.f55b0d62-f99e-424e-925d-82417fcaba3e{strokeWidth:4px;}.a3c1775d-b966-4642-8bcc-e07ecabf7d31,.a3f2f86b-0c91-444a-8988-668a6feb55f8,.a55bacf9-88a0-43f2-bc2e-6e38c7ff7ec9,.ac17c6df-9861-40a9-aa36-9821225a92af,.b376aaca-73fb-477f-a53f-64df9dfcf547,.b694b367-3ba9-48c5-bb80-37cbd7a43a53,.b7362f57-f0a6-4152-a2fe-cc2e8fc9db72,.ee1a1015-6459-4b5c-b5e3-2200549db30e,.f1801107-dbe3-4045-8484-f11193d7c924,.f8f50fdc-94a7-4ee2-957a-37451b6fac80{fill:none;}.ac17c6df-9861-40a9-aa36-9821225a92af,.b694b367-3ba9-48c5-bb80-37cbd7a43a53,.b9de8640-5ab8-489c-85cb-44749037969a{stroke:#38f491;}.a4a0b081-0402-4583-bcb4-4a907047baba,.ab27dfd2-a2af-4f17-ac40-bc139bdc9ea5,.ae808060-7770-407a-8a1e-5f965c9af1f6,.fd73a59d-1982-49c9-b047-2324acb76494{fill:#afb6c4;}.f14cd5c8-1174-40be-ae95-77a917098d72,.fd73a59d-1982-49c9-b047-2324acb76494{opacity:0.5;}.bc39809f-9162-4618-b2e6-215753530438{fill:#319c6f;opacity:0.59;}.ec8a7afa-8964-466b-ace5-bb0c8f9b0125{opacity:0.5;}.a397989d-f614-42ea-9da5-1d45c01cf059{fill:#929aa7;}.e4c21477-1d98-4bc6-b819-2bf58752b94e{opacity:0.5;}.b2657b79-7c82-411b-8aa3-4594c4a2f6be{fill:#00af66;}.ab27dfd2-a2af-4f17-ac40-bc139bdc9ea5{opacity:0.8;}.a602a7cf-47d5-402c-aa89-86de836a7418{fill:#ecedef;}.a3c1775d-b966-4642-8bcc-e07ecabf7d31,.a3f2f86b-0c91-444a-8988-668a6feb55f8,.b376aaca-73fb-477f-a53f-64df9dfcf547,.f1801107-dbe3-4045-8484-f11193d7c924{stroke:#6c7580;}.a3c1775d-b966-4642-8bcc-e07ecabf7d31,.a55bacf9-88a0-43f2-bc2e-6e38c7ff7ec9,.b376aaca-73fb-477f-a53f-64df9dfcf547,.b694b367-3ba9-48c5-bb80-37cbd7a43a53{strokeLinecap:round;}.a55bacf9-88a0-43f2-bc2e-6e38c7ff7ec9,.b376aaca-73fb-477f-a53f-64df9dfcf547{strokeLinejoin:round;}.bee0616f-ce55-4ab0-ba93-8b2217c45216{fill:#1db26a;}.a4a0b081-0402-4583-bcb4-4a907047baba,.a55bacf9-88a0-43f2-bc2e-6e38c7ff7ec9,.b7362f57-f0a6-4152-a2fe-cc2e8fc9db72{stroke:#fff;}.a3c1775d-b966-4642-8bcc-e07ecabf7d31,.a3f2f86b-0c91-444a-8988-668a6feb55f8{strokeWidth:3px;}.f8f50fdc-94a7-4ee2-957a-37451b6fac80{stroke:#707070;}.b694b367-3ba9-48c5-bb80-37cbd7a43a53{strokeWidth:15px;}.a4a0b081-0402-4583-bcb4-4a907047baba{stroke-miterlimit:10;}</style><linearGradient id="ea59ed37-86c4-4a94-a457-993641e97e65" x1="1061.17" y1="397.81" x2="683.77" y2="554.21" gradientUnits="userSpaceOnUse"><stop offset="0" stop-color="#00af66"/><stop offset="1" stop-color="#38f491"/></linearGradient><linearGradient id="bc2f5da9-8a7b-4036-a7ac-76084e376464" x1="886.27" y1="471.06" x2="599.78" y2="767.3" xlink:href="#ea59ed37-86c4-4a94-a457-993641e97e65"/></defs><path className="b3ad0690-ac26-49b2-a45e-360aadd61dc6" d="M792.85,7.81V1003l-.5.29-29.89,17.26A233,233,0,0,1,645.68,1052h0a233.32,233.32,0,0,1-104.41-24.43h0a233.13,233.13,0,0,1-26.36-15.33q-7.14-4.8-13.93-10.13-7-5.48-13.53-11.49-7.95-7.26-15.24-15.31l-1.63-1.82h0q-1.87-2.1-3.68-4.26-5.67-6.69-10.83-13.84c-.11-.14-.21-.27-.3-.41a231.78,231.78,0,0,1-12.93-20l-33.46-58-31.29-54.2-.8-1.39-15.92-27.56-7.51-13-14.49-25.09-33.95-58.81L293.2,675.8l-.27-.46-19.36-33.53-.27-.47-11.94-20.68L225.75,559l-14.22-24.63-.28-.47-7.39-12.81-.42-.74c-.26-.45-.51-.9-.76-1.35a0,0,0,0,0,0,0c-.7-1.24-1.37-2.5-2-3.76a0,0,0,0,1,0,0c-.24-.45-.47-.9-.7-1.36q-3.26-6.42-5.89-13.14c-.07-.16-.13-.33-.2-.5q-1.31-3.37-2.46-6.81a149.06,149.06,0,0,1-7.27-57.74c.09-1.3.2-2.59.33-3.89.15-1.53.32-3.06.51-4.58a152,152,0,0,1,3.92-19.91,148.2,148.2,0,0,1,4.79-14.74q2.37-6.22,5.28-12.22A149.86,149.86,0,0,1,210.4,360.7q1.78-2.61,3.69-5.13a149.3,149.3,0,0,1,20-21.65,151,151,0,0,1,24.65-17.75l70.61-40.77,50.33-29.06L628.29,102.82,792.35,8.1Z"/><rect id="ab3eb9b1-67d6-4b1b-8714-f518a9fb60bf" data-name="Rectangle 91-2" className="b409c0a8-5698-440a-a56e-1734fa3b97cb" x="74.1" y="200.24" width="287.05" height="337.34" rx="30" transform="translate(-155.3 158.24) rotate(-30)"/><path className="b8191384-c96b-4355-80aa-0f6be9ab5b38" d="M792.85,412.77v416l-.5.29-31.16,18a29.82,29.82,0,0,1-15,4,30,30,0,0,1-26-15l-30.68-53.15-43-74.52L567.28,571.15a30,30,0,0,1,2-33.1,30,30,0,0,1,8.93-7.88L774.89,416.64a29.91,29.91,0,0,1,15-4c.83,0,1.66,0,2.49.11Z"/><polygon className="a9fd070e-f09a-4114-9a48-5dc8d2e051b1" points="792.85 623.86 792.85 723.23 792.35 723.52 689.53 782.88 680.42 788.14 637.39 713.62 646.5 708.36 792.35 624.15 792.85 623.86"/><rect id="a3cfdf6c-7a12-48c9-afc4-0cf02692f9b6" data-name="Rectangle 92-2" className="bcf30b2d-e46a-4c1c-b4a8-89163b24c589" x="412.78" y="97" width="287.05" height="336.36" rx="30" transform="translate(-58.06 313.68) rotate(-30)"/><rect id="b2df1c64-0d68-4a13-9fee-5e05019b15d2" data-name="Rectangle 134-2" className="bcf30b2d-e46a-4c1c-b4a8-89163b24c589" x="356.09" y="689.22" width="287.05" height="336.36" rx="30" transform="translate(-361.77 364.68) rotate(-30)"/><rect id="ab2bd4c0-eaa5-447f-b4bd-85d0948b5141" data-name="Rectangle 93-2" className="b409c0a8-5698-440a-a56e-1734fa3b97cb" x="216.06" y="570.77" width="287.05" height="88.05" rx="30" transform="translate(-259.22 262.16) rotate(-30)"/><rect id="fdabc92a-c426-4008-86ac-6b3a54db38c7" data-name="Rectangle 144" className="e7a1c4f5-3d71-410a-aa98-3c5c2be79db8" x="385.75" y="763.96" width="236.04" height="201.62" transform="translate(-364.89 367.74) rotate(-30)"/><path id="a89a8535-d6c7-4e27-a974-451f91c75465" data-name="Intersection 1" className="f55b0d62-f99e-424e-925d-82417fcaba3e" d="M545.48,353.45a88.77,88.77,0,0,1-47.24-17.69A87.68,87.68,0,0,1,485.47,324a89.35,89.35,0,0,1-17.84-30.9,88.38,88.38,0,0,1,39.76-104.56l5.16,8.94a79,79,0,0,0-12.85,9.25,78.17,78.17,0,0,0-22.27,83.11,78.79,78.79,0,0,0,15.76,27.3,77.73,77.73,0,0,0,24.16,18.33,78.8,78.8,0,0,0,28.85,7.73l1.81.11-.48,10.31C546.84,353.54,546.16,353.5,545.48,353.45Z"/><path id="bd784725-495b-4612-8b9f-b49bd50c3539" data-name="Path 40" className="ee1a1015-6459-4b5c-b5e3-2200549db30e" d="M503.73,182.15l49.2,85.22L523.09,378.73l-74-19.85-56.84-98.44Z"/><path id="aff5c5db-a264-401e-8f02-05ca30bdc277" data-name="Path 46" className="ee1a1015-6459-4b5c-b5e3-2200549db30e" d="M447,774.37l49.21,85.22L466.4,971l-74-19.85-56.84-98.44Z"/><path id="ad6cb707-9555-4d0e-bdd2-d7201c8bf6ea" data-name="Subtraction 4" className="b9de8640-5ab8-489c-85cb-44749037969a" d="M595.9,341.8a88.92,88.92,0,0,1-16.35,7.36,87.88,87.88,0,0,1-32,4.41l.48-10.31a78.21,78.21,0,1,0-35.46-145.83l-5.16-8.94a88.44,88.44,0,0,1,110.43,17.84,89.35,89.35,0,0,1,17.84,30.9,88.52,88.52,0,0,1-25.21,94.09A89.82,89.82,0,0,1,595.9,341.8Z"/><path id="fb41f4fc-d007-404c-84e0-d22735e9ac32" data-name="Rectangle 104" className="fd73a59d-1982-49c9-b047-2324acb76494" d="M121.84,308.49l36.63-21.15a7.86,7.86,0,0,1,10.74,2.88h0A7.86,7.86,0,0,1,166.33,301l-36.62,21.14A7.86,7.86,0,0,1,119,319.23h0A7.86,7.86,0,0,1,121.84,308.49Z"/><path id="f78961ea-ac37-4b7b-9db3-4a8cde8c417a" data-name="Rectangle 124" className="bc39809f-9162-4618-b2e6-215753530438" d="M665.12,559.06l36.63-21.15a7.88,7.88,0,0,1,10.75,2.88h0a7.87,7.87,0,0,1-2.88,10.75L673,572.69a7.88,7.88,0,0,1-10.75-2.88h0A7.87,7.87,0,0,1,665.12,559.06Z"/><path id="e1b2945d-a39f-487e-bef7-993464aac4e3" data-name="Rectangle 113" className="ec8a7afa-8964-466b-ace5-bb0c8f9b0125" d="M73.39,290.46l67.71-39.09a7.87,7.87,0,0,1,10.75,2.88h0A7.88,7.88,0,0,1,149,265L81.26,304.09a7.88,7.88,0,0,1-10.75-2.88h0A7.88,7.88,0,0,1,73.39,290.46Z"/><path id="b8861af8-2c71-4625-889f-72c599dd5dc5" data-name="Rectangle 125" className="ec8a7afa-8964-466b-ace5-bb0c8f9b0125" d="M616.67,541l67.72-39.1a7.86,7.86,0,0,1,10.74,2.88h0a7.86,7.86,0,0,1-2.88,10.75l-67.71,39.1a7.88,7.88,0,0,1-10.75-2.88h0A7.87,7.87,0,0,1,616.67,541Z"/><path id="a78d3539-d205-4d65-a3e4-1006deb71abc" data-name="Rectangle 121" className="a397989d-f614-42ea-9da5-1d45c01cf059" d="M412.35,187.14l67.71-39.09a7.86,7.86,0,0,1,10.75,2.88h0a7.88,7.88,0,0,1-2.88,10.75l-67.71,39.09a7.88,7.88,0,0,1-10.75-2.88h0A7.88,7.88,0,0,1,412.35,187.14Z"/><path id="a3ff1dd3-7b8e-43cb-8078-b07337a3225b" data-name="Rectangle 135" className="e4c21477-1d98-4bc6-b819-2bf58752b94e" d="M355.66,779.36l67.71-39.09a7.86,7.86,0,0,1,10.75,2.88h0a7.88,7.88,0,0,1-2.88,10.75L363.52,793a7.86,7.86,0,0,1-10.74-2.88h0A7.86,7.86,0,0,1,355.66,779.36Z"/><path id="bbc0b6bc-3bdf-4f2e-a940-258691977c85" data-name="Rectangle 114" className="e2ddea42-97ee-4592-ae99-fdd53fa8b7ba" d="M545.12,417.11l31.52-18.19a7.86,7.86,0,0,1,10.75,2.88h0a7.86,7.86,0,0,1-2.88,10.74L553,430.74a7.88,7.88,0,0,1-10.75-2.88h0A7.87,7.87,0,0,1,545.12,417.11Z"/><path id="f8c75945-47b6-432b-b35d-d6e2acc8c0c0" data-name="Rectangle 120" className="e2ddea42-97ee-4592-ae99-fdd53fa8b7ba" d="M629,368.67l31.51-18.19a7.86,7.86,0,0,1,10.75,2.88h0a7.87,7.87,0,0,1-2.88,10.75L636.89,382.3a7.87,7.87,0,0,1-10.75-2.88h0A7.88,7.88,0,0,1,629,368.67Z"/><path id="b63871df-168e-44ab-afc7-b0cc9101632e" data-name="Rectangle 112" className="b2657b79-7c82-411b-8aa3-4594c4a2f6be" d="M52.1,302.76h0a7.86,7.86,0,0,1,10.75,2.88h0A7.88,7.88,0,0,1,60,316.39h0a7.87,7.87,0,0,1-10.75-2.88h0A7.86,7.86,0,0,1,52.1,302.76Z"/><path id="a21e0b28-4c7a-4965-9624-08310198709c" data-name="Rectangle 126" className="b409c0a8-5698-440a-a56e-1734fa3b97cb" d="M595.38,553.33h0a7.88,7.88,0,0,1,10.75,2.88h0A7.87,7.87,0,0,1,603.25,567h0a7.88,7.88,0,0,1-10.75-2.88h0A7.88,7.88,0,0,1,595.38,553.33Z"/><path id="b25e9928-8fe9-4084-b2d2-e5a8517fc1b5" data-name="Rectangle 115" className="b2657b79-7c82-411b-8aa3-4594c4a2f6be" d="M391.06,199.43h0a7.88,7.88,0,0,1,10.75,2.88h0a7.87,7.87,0,0,1-2.88,10.75h0a7.86,7.86,0,0,1-10.75-2.88h0A7.86,7.86,0,0,1,391.06,199.43Z"/><path id="bf09e8c3-49cd-4e4f-b066-942e6cc480fd" data-name="Rectangle 136" className="a9fd070e-f09a-4114-9a48-5dc8d2e051b1" d="M334.36,791.66h0a7.86,7.86,0,0,1,10.75,2.88h0a7.86,7.86,0,0,1-2.88,10.74h0a7.86,7.86,0,0,1-10.75-2.88h0A7.86,7.86,0,0,1,334.36,791.66Z"/><path id="a91c2a71-6007-440d-b586-16fb448e47df" data-name="Rectangle 118" className="e2ddea42-97ee-4592-ae99-fdd53fa8b7ba" d="M523.83,429.4h0a7.88,7.88,0,0,1,10.75,2.88h0A7.87,7.87,0,0,1,531.7,443h0A7.87,7.87,0,0,1,521,440.15h0A7.88,7.88,0,0,1,523.83,429.4Z"/><path id="e4cdd13a-8c38-41d4-91e8-00d64c12e9b0" data-name="Rectangle 119" className="b2657b79-7c82-411b-8aa3-4594c4a2f6be" d="M607.73,381h0a7.85,7.85,0,0,1,10.74,2.88h0a7.85,7.85,0,0,1-2.88,10.74h0a7.85,7.85,0,0,1-10.74-2.88h0A7.85,7.85,0,0,1,607.73,381Z"/><path id="f6e72395-5749-41fb-a689-fda42f23bd7c" data-name="Rectangle 106" className="fd73a59d-1982-49c9-b047-2324acb76494" d="M155,366l36.63-21.15a7.88,7.88,0,0,1,10.75,2.88h0a7.88,7.88,0,0,1-2.88,10.75L162.9,379.61a7.88,7.88,0,0,1-10.75-2.88h0A7.87,7.87,0,0,1,155,366Z"/><path id="ae19f85c-6895-4f2e-8573-797bdd125f04" data-name="Rectangle 128" className="bc39809f-9162-4618-b2e6-215753530438" d="M698.32,616.55l36.62-21.14a7.86,7.86,0,0,1,10.75,2.88h0A7.86,7.86,0,0,1,742.81,609l-36.63,21.15a7.86,7.86,0,0,1-10.74-2.88h0A7.86,7.86,0,0,1,698.32,616.55Z"/><path id="a15a591d-dc47-4276-abad-900fc1f30ea7" data-name="Rectangle 108" className="fd73a59d-1982-49c9-b047-2324acb76494" d="M188.23,423.47l36.62-21.15a7.88,7.88,0,0,1,10.75,2.88h0A7.87,7.87,0,0,1,232.72,416L196.09,437.1a7.86,7.86,0,0,1-10.74-2.88h0A7.86,7.86,0,0,1,188.23,423.47Z"/><path id="a842b96b-db88-4f0f-8f14-21e2f2695725" data-name="Rectangle 111" className="fd73a59d-1982-49c9-b047-2324acb76494" d="M221.42,481,258,459.82a7.86,7.86,0,0,1,10.75,2.88h0a7.85,7.85,0,0,1-2.88,10.74l-36.62,21.15a7.87,7.87,0,0,1-10.75-2.88h0A7.88,7.88,0,0,1,221.42,481Z"/><path className="bc39809f-9162-4618-b2e6-215753530438" d="M792.85,747.65v18.17l-.5.29-5.76,3.33a7.87,7.87,0,0,1-7.87-13.63l13.63-7.87Z"/><path id="bc0ac57a-56bb-4fa4-8ffe-bc78752f91c0" data-name="Rectangle 117" className="a397989d-f614-42ea-9da5-1d45c01cf059" d="M545.38,281.82l23.84-13.77A7.87,7.87,0,0,1,580,270.93h0a7.86,7.86,0,0,1-2.88,10.75l-23.85,13.77a7.86,7.86,0,0,1-10.74-2.88h0A7.86,7.86,0,0,1,545.38,281.82Z"/><path id="a26a2230-b1df-4ad1-912e-2cad03758644" data-name="Rectangle 105" className="ab27dfd2-a2af-4f17-ac40-bc139bdc9ea5" d="M134.89,327.64l75.8-43.77a9.6,9.6,0,0,1,13.1,3.51h0a9.58,9.58,0,0,1-3.51,13.1l-75.8,43.77a9.58,9.58,0,0,1-13.1-3.51h0A9.59,9.59,0,0,1,134.89,327.64Z"/><path id="bc157e63-ab25-4a1d-8101-04b32aa0e59e" data-name="Rectangle 127" className="b409c0a8-5698-440a-a56e-1734fa3b97cb" d="M678.17,578.21,754,534.45a9.59,9.59,0,0,1,13.1,3.51h0a9.59,9.59,0,0,1-3.51,13.1l-75.8,43.76a9.59,9.59,0,0,1-13.1-3.51h0A9.59,9.59,0,0,1,678.17,578.21Z"/><path id="fc0a6dd8-0ed7-44fc-a286-924e9edbeeee" data-name="Rectangle 107" className="ab27dfd2-a2af-4f17-ac40-bc139bdc9ea5" d="M168.08,385.13l61.75-35.65a9.59,9.59,0,0,1,13.1,3.51h0a9.59,9.59,0,0,1-3.51,13.1l-61.75,35.65a9.59,9.59,0,0,1-13.1-3.51h0A9.59,9.59,0,0,1,168.08,385.13Z"/><path id="b1e11b6a-9c82-4f4b-8a14-7c0c5c534a50" data-name="Rectangle 130" className="b409c0a8-5698-440a-a56e-1734fa3b97cb" d="M711.36,635.71l61.75-35.65a9.59,9.59,0,0,1,13.1,3.51h0a9.57,9.57,0,0,1-3.51,13.09L721,652.32a9.6,9.6,0,0,1-13.1-3.51h0A9.6,9.6,0,0,1,711.36,635.71Z"/><rect id="aea8a8f0-ef73-4e81-9cd6-1aa0dc9d7e31" data-name="Rectangle 116" className="ae808060-7770-407a-8a1e-5f965c9af1f6" x="516.12" y="243.38" width="60.98" height="26.06" rx="13.03" transform="translate(-54.98 307.65) rotate(-30)"/><path id="a4ebc4ce-b729-4921-994c-2f837cc40af7" data-name="Rectangle 109" className="ab27dfd2-a2af-4f17-ac40-bc139bdc9ea5" d="M201.27,442.62l46-26.55a9.59,9.59,0,0,1,13.1,3.51h0a9.6,9.6,0,0,1-3.51,13.1l-46,26.55a9.59,9.59,0,0,1-13.1-3.51h0A9.6,9.6,0,0,1,201.27,442.62Z"/><path id="b408371b-e173-4239-8efa-f6b4f783dad7" data-name="Rectangle 110" className="ab27dfd2-a2af-4f17-ac40-bc139bdc9ea5" d="M234.47,500.12l85.6-49.42a9.57,9.57,0,0,1,13.09,3.51h0a9.59,9.59,0,0,1-3.51,13.1l-85.6,49.42A9.59,9.59,0,0,1,231,513.22h0A9.59,9.59,0,0,1,234.47,500.12Z"/><path className="b409c0a8-5698-440a-a56e-1734fa3b97cb" d="M792.85,774.34v17.77l-.5-.23a9.45,9.45,0,0,1-4.09-3.82,9.58,9.58,0,0,1,3.51-13.1l.58-.33Z"/><path id="acbaf73f-5feb-4a65-9e32-1dd69f5cb56c" data-name="Rectangle 122" className="a602a7cf-47d5-402c-aa89-86de836a7418" d="M314.11,619.37l120.94-69.83a19.93,19.93,0,0,1,27.21,7.29h0A19.92,19.92,0,0,1,455,584L334,653.87a19.92,19.92,0,0,1-27.2-7.29h0A19.92,19.92,0,0,1,314.11,619.37Z"/><path id="a3a2f6b8-65e1-4037-bc58-2d150029d1f4" data-name="Path 38" className="b376aaca-73fb-477f-a53f-64df9dfcf547" d="M102.64,351.94l-.74-1.28a3,3,0,0,0-4-1.08l-5.11,2.95a3,3,0,0,0-1.08,4h0l.74,1.28"/><path id="a050473f-461e-4d85-9cc3-e426ab1c34d2" data-name="Path 39" className="b376aaca-73fb-477f-a53f-64df9dfcf547" d="M94.92,344.47a3,3,0,1,1-4-1.08h0A3,3,0,0,1,94.92,344.47Z"/><g id="ab9f267f-f2f0-4fdd-ad44-ca5692cc58e6" data-name="Ellipse 23"><circle className="ee1a1015-6459-4b5c-b5e3-2200549db30e" cx="94.08" cy="348.93" r="9.83"/><circle className="f1801107-dbe3-4045-8484-f11193d7c924" cx="94.08" cy="348.93" r="9.33"/></g><g id="ab55dc44-71fc-4ea5-8658-08f9fa0d684a" data-name="Group 15"><g id="e2062150-9d5e-4ec8-af06-ec91164b9ccb" data-name="Component 7 4"><circle id="a2a8695d-ac7a-4b2c-9b42-e38a49d96a48" data-name="Ellipse 1-8" className="bee0616f-ce55-4ab0-ba93-8b2217c45216" cx="637.37" cy="599.5" r="21.15"/><path id="a14e5a0d-d95c-404c-ac1b-d30d3c76df7e" data-name="Path 38-2" className="a55bacf9-88a0-43f2-bc2e-6e38c7ff7ec9" d="M645.92,602.51l-.74-1.27a3,3,0,0,0-4-1.09l-5.11,3a3,3,0,0,0-1.08,4h0l.74,1.27"/><path id="fd17169f-2411-420b-8e74-a53bedda35f7" data-name="Path 39-2" className="a55bacf9-88a0-43f2-bc2e-6e38c7ff7ec9" d="M638.2,595.05a3,3,0,1,1-4-1.08h0A3,3,0,0,1,638.2,595.05Z"/><g id="e49a880a-551e-4a0a-ba2c-972a4584c32c" data-name="Ellipse 25"><circle className="ee1a1015-6459-4b5c-b5e3-2200549db30e" cx="637.37" cy="599.5" r="9.83"/><circle className="b7362f57-f0a6-4152-a2fe-cc2e8fc9db72" cx="637.37" cy="599.5" r="9.33"/></g></g><g id="a3cba8ef-57d3-472a-be9d-b5efdb1f81e1" data-name="Component 7 5"><circle id="bbdecba5-c569-446c-bc9f-7b19396214d8" data-name="Ellipse 1-9" className="bee0616f-ce55-4ab0-ba93-8b2217c45216" cx="670.56" cy="656.99" r="21.15"/><path id="fd0145c3-43d0-41a4-b7da-010c6da1d401" data-name="Path 38-3" className="a55bacf9-88a0-43f2-bc2e-6e38c7ff7ec9" d="M679.11,660l-.74-1.28a2.94,2.94,0,0,0-4-1.08l-5.11,3a3,3,0,0,0-1.08,4h0l.74,1.28"/><path id="aa8fd8de-71d4-4011-ab45-2141df4de76c" data-name="Path 39-3" className="a55bacf9-88a0-43f2-bc2e-6e38c7ff7ec9" d="M671.39,652.54a3,3,0,1,1-4-1.08h0A2.94,2.94,0,0,1,671.39,652.54Z"/><g id="e464a4e2-20cc-41c7-9ee0-b82e54cd5ec8" data-name="Ellipse 25-2"><circle className="ee1a1015-6459-4b5c-b5e3-2200549db30e" cx="670.56" cy="656.99" r="9.83"/><circle className="b7362f57-f0a6-4152-a2fe-cc2e8fc9db72" cx="670.56" cy="656.99" r="9.33"/></g></g><g id="e3872958-fbc7-407b-9a50-3c3c4128f1de" data-name="Component 7 6"><circle id="fb501b4f-635f-4ac6-9dfd-5c1cb55655d5" data-name="Ellipse 1-10" className="bee0616f-ce55-4ab0-ba93-8b2217c45216" cx="750.96" cy="796.25" r="21.15"/><path id="a4e33cb9-bffe-4538-887a-f9e6266022ec" data-name="Path 38-4" className="a55bacf9-88a0-43f2-bc2e-6e38c7ff7ec9" d="M759.51,799.27l-.74-1.28a2.93,2.93,0,0,0-4-1.08l-5.11,3a3,3,0,0,0-1.09,4h0l.73,1.28"/><path id="a8fd8edd-0c21-496c-be1b-5b063fd64117" data-name="Path 39-4" className="a55bacf9-88a0-43f2-bc2e-6e38c7ff7ec9" d="M751.79,791.8a3,3,0,1,1-4-1.08h0A2.93,2.93,0,0,1,751.79,791.8Z"/><g id="a4b2ff97-444f-47bf-93ae-0cb4e739568c" data-name="Ellipse 25-3"><circle className="ee1a1015-6459-4b5c-b5e3-2200549db30e" cx="750.96" cy="796.25" r="9.83"/><circle className="b7362f57-f0a6-4152-a2fe-cc2e8fc9db72" cx="750.96" cy="796.25" r="9.33"/></g></g></g><path className="bc39809f-9162-4618-b2e6-215753530438" d="M792.85,650.38v15.48c-.16.11-.33.21-.5.31l-.06,0-45.14,26.06a9.34,9.34,0,1,1-9.35-16.18L783,650a9.32,9.32,0,0,1,9.4.05A5.19,5.19,0,0,1,792.85,650.38Z"/><path className="b409c0a8-5698-440a-a56e-1734fa3b97cb" d="M792.85,676.67v26.69l-.5.29-27.06,15.62a11.56,11.56,0,1,1-11.56-20L792.35,677Z"/><g id="ea6bdc36-19c3-4a3e-9953-8c2e7a5f976f" data-name="Ellipse 24"><circle className="ee1a1015-6459-4b5c-b5e3-2200549db30e" cx="275.39" cy="662.46" r="8.61"/><circle className="a3f2f86b-0c91-444a-8988-668a6feb55f8" cx="275.39" cy="662.46" r="7.11"/></g><line id="ac83dfea-d0ff-4c7b-8edc-91d73e60c5c1" data-name="Line 1" className="a3c1775d-b966-4642-8bcc-e07ecabf7d31" x1="282.92" y1="665.1" x2="287.99" y2="667.08"/><path id="b53aaf13-718f-4995-beaa-c5e32c2389d1" data-name="Rectangle 137" className="e2ddea42-97ee-4592-ae99-fdd53fa8b7ba" d="M488.43,1009.33l31.51-18.19A7.86,7.86,0,0,1,530.69,994h0a7.86,7.86,0,0,1-2.88,10.74L496.3,1023a7.87,7.87,0,0,1-10.75-2.88h0A7.87,7.87,0,0,1,488.43,1009.33Z"/><path id="b09c03c4-9c6d-41a2-a222-21d0d20efe3c" data-name="Rectangle 138" className="e2ddea42-97ee-4592-ae99-fdd53fa8b7ba" d="M572.32,960.89l31.52-18.19a7.87,7.87,0,0,1,10.75,2.88h0a7.88,7.88,0,0,1-2.88,10.75l-31.52,18.19a7.88,7.88,0,0,1-10.75-2.88h0A7.88,7.88,0,0,1,572.32,960.89Z"/><path id="f8af37dc-2d77-408e-8fe3-2f11a673dce2" data-name="Rectangle 139" className="e2ddea42-97ee-4592-ae99-fdd53fa8b7ba" d="M467.14,1021.62h0a7.86,7.86,0,0,1,10.74,2.88h0a7.86,7.86,0,0,1-2.88,10.75h0a7.86,7.86,0,0,1-10.74-2.88h0A7.86,7.86,0,0,1,467.14,1021.62Z"/><path id="a50c2443-bbf9-46a3-8309-79ecb37becc3" data-name="Rectangle 140" className="a9fd070e-f09a-4114-9a48-5dc8d2e051b1" d="M551,973.19h0a7.86,7.86,0,0,1,10.75,2.88h0a7.86,7.86,0,0,1-2.88,10.74h0a7.86,7.86,0,0,1-10.75-2.88h0A7.86,7.86,0,0,1,551,973.19Z"/><g id="b799b54e-ac66-4563-b7c6-1c55309df06c" data-name="Ellipse 18"><circle className="a9fd070e-f09a-4114-9a48-5dc8d2e051b1" cx="511.03" cy="192.34" r="6.15"/><circle className="ac17c6df-9861-40a9-aa36-9821225a92af" cx="511.03" cy="192.34" r="6.65"/></g><g id="f231e74c-e5ab-476d-a37d-4ea8f01c3d78" data-name="Ellipse 19"><circle className="a9fd070e-f09a-4114-9a48-5dc8d2e051b1" cx="546.6" cy="348.44" r="6.15"/><circle className="ac17c6df-9861-40a9-aa36-9821225a92af" cx="546.6" cy="348.44" r="6.65"/></g><g id="a2830875-4337-46e6-82cd-6f194e9490a8" data-name="Rectangle 145"><rect className="ae808060-7770-407a-8a1e-5f965c9af1f6" x="451.67" y="954.95" width="20.65" height="46.72" transform="translate(-427.26 362.07) rotate(-30)"/><rect className="f8f50fdc-94a7-4ee2-957a-37451b6fac80" x="452.17" y="955.45" width="19.65" height="45.72" transform="translate(-427.26 362.07) rotate(-30)"/></g><g id="b5c7365c-7bc6-4ec5-8d3d-cd508797659e" data-name="Rectangle 146"><rect className="ae808060-7770-407a-8a1e-5f965c9af1f6" x="473.34" y="920.19" width="20.65" height="67.37" transform="translate(-412.14 369.63) rotate(-30)"/><rect className="f8f50fdc-94a7-4ee2-957a-37451b6fac80" x="473.84" y="920.69" width="19.65" height="66.37" transform="translate(-412.14 369.63) rotate(-30)"/></g><g id="ba02f6fb-138b-4e14-8cac-72c67dfe3ddd" data-name="Rectangle 147"><rect className="b409c0a8-5698-440a-a56e-1734fa3b97cb" x="494.02" y="881.76" width="20.65" height="91.96" transform="translate(-396.3 376.47) rotate(-30)"/><rect className="f8f50fdc-94a7-4ee2-957a-37451b6fac80" x="494.52" y="882.26" width="19.65" height="90.96" transform="translate(-396.3 376.47) rotate(-30)"/></g><g id="a4fbd5e4-fb73-411d-8a53-9d63ea74fa4d" data-name="Rectangle 148"><rect className="ae808060-7770-407a-8a1e-5f965c9af1f6" x="511.39" y="830.94" width="20.65" height="129.82" transform="translate(-378.03 380.88) rotate(-30)"/><rect className="f8f50fdc-94a7-4ee2-957a-37451b6fac80" x="511.89" y="831.44" width="19.65" height="128.82" transform="translate(-378.03 380.88) rotate(-30)"/></g><g id="ad353e30-5667-4751-9b6c-cc861e632b26" data-name="Rectangle 149"><rect className="ae808060-7770-407a-8a1e-5f965c9af1f6" x="542.03" y="829.68" width="20.65" height="114.58" transform="translate(-369.48 395.01) rotate(-30)"/><rect className="f8f50fdc-94a7-4ee2-957a-37451b6fac80" x="542.53" y="830.18" width="19.65" height="113.58" transform="translate(-369.48 395.01) rotate(-30)"/></g><g id="f6daf3ea-6fef-4d35-bb9d-4441a2037055" data-name="Rectangle 150"><rect className="a9fd070e-f09a-4114-9a48-5dc8d2e051b1" x="560.38" y="782.53" width="20.65" height="148.51" transform="translate(-351.93 400.14) rotate(-30)"/><rect className="f8f50fdc-94a7-4ee2-957a-37451b6fac80" x="560.88" y="783.03" width="19.65" height="147.51" transform="translate(-351.93 400.14) rotate(-30)"/></g><g id="a7111337-a131-4828-a9e8-7e06e2362396" data-name="Rectangle 151"><rect className="ae808060-7770-407a-8a1e-5f965c9af1f6" x="591.88" y="784.47" width="20.65" height="129.82" transform="translate(-344.01 414.9) rotate(-30)"/><rect className="f8f50fdc-94a7-4ee2-957a-37451b6fac80" x="592.38" y="784.97" width="19.65" height="128.82" transform="translate(-344.01 414.9) rotate(-30)"/></g><path id="ea7af0d5-39fd-474d-a178-1121b0dde630" data-name="Path 49" className="b694b367-3ba9-48c5-bb80-37cbd7a43a53" d="M407.32,884.58l12-44.63L442,847.17l19.29-72,24.46,1.68L505.85,702l40.75,4.56"/><path id="ae19b47e-62de-4132-a47c-a384cbfc7ac3" data-name="Path 38-5" className="b376aaca-73fb-477f-a53f-64df9dfcf547" d="M135.83,409.43l-.74-1.28a3,3,0,0,0-4-1.08L126,410a3,3,0,0,0-1.08,4h0l.74,1.28"/><path id="e009f673-ebc1-4e4b-af88-d77d6d14aa0d" data-name="Path 39-5" className="b376aaca-73fb-477f-a53f-64df9dfcf547" d="M128.11,402a3,3,0,1,1-4-1.08h0A3,3,0,0,1,128.11,402Z"/><g id="a3e95d62-8cd9-4891-aa95-4345e4a4688e" data-name="Ellipse 23-2"><circle className="ee1a1015-6459-4b5c-b5e3-2200549db30e" cx="127.28" cy="406.42" r="9.83"/><circle className="f1801107-dbe3-4045-8484-f11193d7c924" cx="127.28" cy="406.42" r="9.33"/></g><path id="a0aa48cc-2684-48ac-9e26-e9443cc20b75" data-name="Path 38-6" className="b376aaca-73fb-477f-a53f-64df9dfcf547" d="M169,466.92l-.74-1.27a2.93,2.93,0,0,0-4-1.08l-5.11,2.95a3,3,0,0,0-1.09,4h0l.73,1.27"/><path id="baaf7b41-e49d-448f-9468-310c89fb71ee" data-name="Path 39-6" className="b376aaca-73fb-477f-a53f-64df9dfcf547" d="M161.3,459.46a3,3,0,1,1-4-1.08h0A3,3,0,0,1,161.3,459.46Z"/><g id="a2ce96bb-bc02-4571-8b4d-df80251cb769" data-name="Ellipse 23-3"><circle className="ee1a1015-6459-4b5c-b5e3-2200549db30e" cx="160.47" cy="463.91" r="9.83"/><circle className="f1801107-dbe3-4045-8484-f11193d7c924" cx="160.47" cy="463.91" r="9.33"/></g><path id="a48b1741-b98c-4b58-bcc9-99114114a002" data-name="Path 38-7" className="b376aaca-73fb-477f-a53f-64df9dfcf547" d="M202.21,524.42l-.73-1.28a3,3,0,0,0-4-1.08l-5.11,3a3,3,0,0,0-1.08,4h0l.74,1.28"/><path id="bc189327-7ade-46a3-be9b-31ed30f5ccd7" data-name="Path 39-7" className="b376aaca-73fb-477f-a53f-64df9dfcf547" d="M194.5,517a3,3,0,1,1-4-1.08h0A3,3,0,0,1,194.5,517Z"/><g id="f8506924-c60d-49cd-9e08-e1d10ca661ea" data-name="Ellipse 23-4"><circle className="ee1a1015-6459-4b5c-b5e3-2200549db30e" cx="193.66" cy="521.4" r="9.83"/><circle className="f1801107-dbe3-4045-8484-f11193d7c924" cx="193.66" cy="521.4" r="9.33"/></g><g id="f7d9cde4-d544-499d-a482-d65f0acfbe59" data-name="Group 40"><circle id="a757b71c-3c05-4591-846c-063e599f3466" data-name="Ellipse 1-14" className="bee0616f-ce55-4ab0-ba93-8b2217c45216" cx="708.43" cy="722.58" r="25.57"/><path id="b1b8c2fc-244c-4991-b214-a4e9580698a9" data-name="Path 38-8" className="a55bacf9-88a0-43f2-bc2e-6e38c7ff7ec9" d="M718.77,726.22l-.89-1.55a3.58,3.58,0,0,0-4.88-1.3h0l-6.18,3.57a3.56,3.56,0,0,0-1.3,4.87h0l.89,1.54"/><path id="e764fb83-db05-4c68-a5e3-73c38dd80f5e" data-name="Path 39-8" className="a55bacf9-88a0-43f2-bc2e-6e38c7ff7ec9" d="M709.43,717.19a3.57,3.57,0,1,1-4.87-1.31,3.56,3.56,0,0,1,4.87,1.31Z"/><g id="b3130a6a-4eff-4e25-be08-6b4e79c78afc" data-name="Ellipse 25-4"><circle className="ee1a1015-6459-4b5c-b5e3-2200549db30e" cx="708.43" cy="722.58" r="11.8"/><circle className="b7362f57-f0a6-4152-a2fe-cc2e8fc9db72" cx="708.43" cy="722.58" r="11.3"/></g></g><g className="f14cd5c8-1174-40be-ae95-77a917098d72"><g id="bf0ac9f4-8426-4892-92aa-c4385c96b4e9" data-name="Ellipse 1-7"><circle className="a4a0b081-0402-4583-bcb4-4a907047baba" cx="127.3" cy="406.2" r="21.15"/><circle className="a4a0b081-0402-4583-bcb4-4a907047baba" cx="127.3" cy="406.2" r="21.65"/></g></g><g className="f14cd5c8-1174-40be-ae95-77a917098d72"><g id="e0c55a47-0b71-4d78-914c-f25928f7abb5" data-name="Ellipse 1-7"><circle className="a4a0b081-0402-4583-bcb4-4a907047baba" cx="160.41" cy="464.21" r="21.15"/><circle className="a4a0b081-0402-4583-bcb4-4a907047baba" cx="160.41" cy="464.21" r="21.65"/></g></g><g className="f14cd5c8-1174-40be-ae95-77a917098d72"><g id="a15dd130-f683-478b-8e84-e695046c8c9c" data-name="Ellipse 1-7"><circle className="a4a0b081-0402-4583-bcb4-4a907047baba" cx="94.08" cy="348.93" r="21.15"/><circle className="a4a0b081-0402-4583-bcb4-4a907047baba" cx="94.08" cy="348.93" r="21.65"/></g></g><g className="f14cd5c8-1174-40be-ae95-77a917098d72"><g id="b1f0e8cf-b44c-443c-b390-e1f07ce49b30" data-name="Ellipse 1-7"><circle className="a4a0b081-0402-4583-bcb4-4a907047baba" cx="193.87" cy="521.83" r="21.15"/><circle className="a4a0b081-0402-4583-bcb4-4a907047baba" cx="193.87" cy="521.83" r="21.65"/></g></g><g className="f14cd5c8-1174-40be-ae95-77a917098d72"><g id="ab1f0e01-cf67-4260-a864-c748350b5d65" data-name="Ellipse 1-7"><circle className="a4a0b081-0402-4583-bcb4-4a907047baba" cx="275.87" cy="662.83" r="21.15"/><circle className="a4a0b081-0402-4583-bcb4-4a907047baba" cx="275.87" cy="662.83" r="21.65"/></g></g></svg>